<svg version="1" xmlns="http://www.w3.org/2000/svg" width="305.333" height="305.333" viewBox="0 0 229.000000 229.000000"><path d="M105.5 1.8C77.1 3.8 51.7 15.9 31.7 37 10 59.9-.3 86.6.6 117.5c.4 14.7.6 16 3.4 26.9 4.8 18.7 14.6 35.4 29.9 50.7C48.8 210 65.5 219.7 84 224.4c46.5 11.7 92-4.6 120.9-43.2 27-36 28.6-89.8 3.6-127.1-15-22.4-36.3-39.1-60.2-47-11.7-3.9-30.3-6.2-42.8-5.3zm23.3 9.3c22.1 2.7 41.1 12.5 58.7 30.3 11.6 11.7 18.2 21.7 23.6 35.6 8.2 20.8 9.3 48.1 2.7 68.8-1.2 3.7-2.2 6.9-2.3 7.2-.3 2-6 12.7-9.7 18.5-9.8 15.2-24.9 28.8-41.5 37.3-12.2 6.3-21.4 8.9-36.5 10.4-13.7 1.4-29.1.1-40.5-3.3-9.2-2.7-22.5-9.2-29.9-14.5-8-5.6-20.2-17.9-25.9-25.9-21.6-30.3-25.2-73.2-8.8-106C29.3 48.4 46.4 30.9 66 21c13.7-6.8 21.8-9 43-11.3 3.2-.3 9.3.1 19.8 1.4z"/><path d="M102.2 27.1c-3.7 1.1-5.5 4.4-3.8 7.1.9 1.5 2.6 1.8 10.7 1.8 8.5 0 13.7.6 21.7 2.5 1.2.3 3 .7 4 .9 3.3.7 14.4 5.7 18.3 8.1 2.1 1.4 6.9 5.1 10.6 8.3 9.4 8.1 10.7 8.7 13.1 6.1 2.6-2.7 1.8-5.2-2.7-9.8-9.7-9.7-25.3-18.9-36.7-21.6-1-.3-4.6-1.2-7.9-2-7.7-1.9-23-2.8-27.3-1.4zM62.8 41.3C46.1 52.8 31.9 71.9 27.6 88.5c-1.4 5.4-.9 8.3 1.7 9.9 2.8 1.8 5-.6 7.7-8.1 4.3-12.1 9.9-21.1 18.5-29.9C59.9 56 65.9 50.8 68.8 49c6.7-4.1 8.8-7 7.2-9.9-1.8-3.4-6.1-2.6-13.2 2.2z"/><path d="M96.5 43.7C78.1 47.6 61.1 59.6 50 76.6c-4.1 6.3-5 8.5-4.8 11.3.3 3.1.7 3.6 3.5 4.2 3.8.7 4.2.4 10.1-9.7 7.4-12.7 21.4-23.4 36.7-28 4.3-1.3 9.2-1.8 17.5-1.8 11 0 11.9.2 20.7 3.8 9.6 3.9 13.8 4.3 15.7 1.4 1.5-2.5 0-4.7-5.5-7.8-12.3-7.2-31.5-9.7-47.4-6.3z"/><path d="M106.9 72.7c-.1 1-.2 3.2-.1 5 0 2.9-.5 3.4-4.4 4.9-5.3 2-9.1 5.6-11.5 10.9-5.1 11.1.4 21.5 13.8 26.4 10.5 3.9 13.4 5.4 14.7 8 1.6 3.1.6 6.5-2.3 8-3.4 1.8-12.8 1.3-18.2-1-2.9-1.3-5.4-1.8-5.8-1.3-.5.5-1.6 3.3-2.6 6.3-2 6.3-2.1 6.2 7.2 8.7 3.5.9 6.3 2.2 6.4 2.8.1.6.2 2.4.3 4.1.1 3 .2 3 6.4 3.3l6.2.3v-4.3c0-4.3.1-4.3 6-7.1 7-3.2 10.5-7.7 11.5-14.8 1.7-11.8-4.8-19.5-20.8-24.5-10-3.1-13.4-8.5-8.3-13.3 2.8-2.7 8.6-2.6 16 .2 2.7 1 5.4 1.6 6.1 1.3.7-.2 1.8-2.8 2.5-5.7 1.2-4.7 1.1-5.4-.5-6.5-1-.7-3.7-1.6-6.1-2l-4.4-.6V71h-6c-5 0-6 .3-6.1 1.7zM164.2 73.2c-1.9 1.9-1.4 4.1 2.2 11.5 5.8 11.3 6.8 15 7.3 27.3.4 8.9.1 12.9-1.1 17.5-1 3.3-1.8 6.4-2 7-1.7 6.9-11.1 20.2-18.3 26.1-8.8 7.1-9.5 7.9-9.1 10.9.7 6.4 6.2 5.2 16.2-3.6 20.1-18 29-44.8 23.4-70.7-1.8-8.5-8.5-23.7-11.5-26-2.1-1.5-5.5-1.6-7.1 0z"/><path d="M189.1 92.2c-.8 2.3-.8 2.9.9 12.8 2.3 12.9-.2 29-6.6 42.9-3.5 7.6-3.6 10.4-.6 12 2.9 1.5 5.9-.6 8.6-6.1 1.4-2.9 2.6-5.8 2.7-6.3 0-.6.7-2.5 1.5-4.3 5.8-13.9 5.9-48.7.2-52.3-2.5-1.6-5.8-1-6.7 1.3zM40.6 108.3c-1.6 1.2-1.8 2.4-1.3 10.3.3 4.9.8 9.9 1.1 11.1.3 1.3.8 3.1 1 4 2.1 9.2 10 23.7 13.5 24.8 2.8.9 6.1-1.1 6.1-3.7 0-1.1-1.8-5.6-4-10-4.9-9.5-6.8-16.6-7.5-27.2-.3-4.4-1-8.6-1.6-9.3-1.5-1.7-5-1.7-7.3 0zM31.3 139.2c-4.8 2.3-2.3 11 7.3 25.4 7.1 10.6 25.8 27.2 33.6 29.5 5.1 1.6 6.8.7 6.8-3.5 0-3.2-.5-3.8-4.2-5.7-3.8-2-12-7.6-17.1-11.8-4.2-3.5-11.5-14-16.7-23.9-3-5.8-5.9-10.7-6.5-10.8-.5-.1-2 .2-3.2.8z"/><path d="M68.7 166.5c-1 .9-1.7 2.5-1.7 3.5 0 9.3 44.5 23.3 52 16.5 2.3-2 2.6-5.8.8-7.2-.7-.6-5.4-1.3-10.5-1.7-5-.4-11.5-1.4-14.5-2.3-2.9-.9-5.5-1.7-5.8-1.8-2.5-.8-10.2-4.9-11.4-6-2.4-2.4-7-2.9-8.9-1zM154.9 181.2c-13 8.5-27.4 12.8-42.7 12.8-4.3 0-8.3.4-9 .9-.8.5-1.2 2.2-1 4.1.4 4.4 3.4 5.3 15.3 4.4 16-1.1 29.4-5.7 43.1-14.6 6.7-4.3 8.2-6.5 6.4-9.8-1.6-3-5-2.4-12.1 2.2z"/></svg>